<svg version="1.1" id="レイヤー_1" xmlns="http://www.w3.org/2000/svg" xmlns:xlink="http://www.w3.org/1999/xlink" x="0px"
	 y="0px" viewBox="0 0 225.9 181.3" xml:space="preserve">
<def>
#target {
    stroke: blue;
	fill:red;
    stroke-width: 25px;
    stroke-dasharray: 1341.1358642578125;
    <!-- animation: logoAnimation 4s ease-out; -->
}

@keyframes logoAnimation {
    0%{
        stroke-dasharray: 1341;
    }
    50%{
        stroke-dasharray: 0;
    }
}
</def>
<path id="target" d="M5,181.3H0V0h5V181.3z M150.9,86.4l2.2-0.2l2.2-0.4l2.7-0.8l2.6-1.1l3.1-1.7l3.1-2l3.5-2.8l4.5-4.2l5.9-6.5l14.6-18.9l-4-3
	l-10.6,14l-6.6,7.9l-4.7,4.8l-3.7,3.2l-3.2,2.3l-2.7,1.6l-2.6,1.2l-2.6,0.9l-2.6,0.5l-2.1,0.1l-1.3,0l-2.6-0.4l-2.6-0.7l-2.6-1.1
	l-3.1-1.8l-3.2-2.3l-4.2-3.6l-5.2-5.3L98.7,32l-7.4-8.8l-5-5.1l-4-3.6l-3.6-2.7l-3.1-1.9l-2.6-1.3l-2.6-1l-2.7-0.7l-2.7-0.4
	l-2.2-0.1l-1.1,0l-2.2,0.2L57,7.1L54.3,8l-2.6,1.1l-3.1,1.7l-3.1,2.1L42,15.8L37.5,20l-5.9,6.6L17.5,44.9l4,3l9.6-12.8l7.1-8.6
	l4.7-4.9l3.7-3.3l3.2-2.4l3.1-1.9l2.6-1.2l2.6-0.9l2.6-0.5l2.1-0.1l1.3,0l2.6,0.4l2.6,0.7l2.6,1.1l3.1,1.8l3.2,2.3l4.2,3.6l5.2,5.3
	l26.4,34.3l7.4,8.8l5,5.1l4,3.6l3.6,2.7l3.1,1.9l2.6,1.3l2.6,1L145,86l2.7,0.4l2.2,0.1L150.9,86.4z M181.6,86.4l2.2-0.2l2.7-0.5
	l2.7-0.8l2.6-1.1l3.1-1.7l3.1-2.1l3.5-2.9l4.5-4.3l5.9-6.6l14.1-18.3l-4-3l-10.6,14l-6.6,7.9l-4.7,4.8l-3.7,3.2l-3.2,2.3l-2.7,1.6
	l-2.6,1.2l-2.6,0.9l-2.6,0.5l-2.1,0.1l-1.3,0l-2.6-0.4l-2.6-0.7l-2.6-1.1l-3.1-1.8l-3.2-2.3l-4.2-3.6l-5.2-5.3L129.4,32l-7.4-8.8
	l-5-5.1l-4-3.6l-3.6-2.7l-3.1-1.9l-2.6-1.3l-2.6-1l-2.7-0.7l-2.7-0.4l-2.2-0.1l-1.1,0l-2.2,0.2l-2.7,0.5L85,8l-2.6,1.1l-3.1,1.7
	l-3.1,2.1l-3.5,2.9L68.2,20l-5.9,6.6L48.2,44.9l4,3l10.6-14l6.6-7.9l4.7-4.8l3.7-3.2l3.2-2.3l2.7-1.6l2.6-1.2l2.6-0.9l2.6-0.5
	l2.1-0.1l1.3,0l2.1,0.3l2.6,0.7l2.6,1l3.1,1.7l3.6,2.5l4.2,3.6l5.2,5.3l26.4,34.3l7.4,8.8l5,5.1l4,3.6l3.6,2.7l3.1,1.9l2.6,1.3
	l2.6,1l2.7,0.7l2.7,0.4l2.2,0.1L181.6,86.4z"/>
</svg>
